<?xml version="1.0" encoding="utf-8"?>
<!-- Generator: Adobe Illustrator 17.0.0, SVG Export Plug-In . SVG Version: 6.00 Build 0)  -->
<!DOCTYPE svg PUBLIC "-//W3C//DTD SVG 1.1//EN" "http://www.w3.org/Graphics/SVG/1.1/DTD/svg11.dtd">
<svg version="1.1" id="Capa_1" xmlns="http://www.w3.org/2000/svg" xmlns:xlink="http://www.w3.org/1999/xlink" x="0px" y="0px"
	 width="800px" height="800px" viewBox="0 0 800 800" enable-background="new 0 0 800 800" xml:space="preserve">
<g>
	<path d="M620,543V109.654C620,72.653,589.887,42,552.886,42H324.733H203.946H134.07l-4.026,1.898
		C47.108,77.345,55.973,199.568,56.39,204.769L58.043,225H137v399.116c0,32.648,23.262,60.428,55.422,66.051l2.578,0.465V691h3.357
		l1.273,0.223l0.443-0.223h400.991l1.206-0.021C637.798,687.139,705,656.152,705,565.959V543H620z M101.038,181
		c1.161-24,6.813-63.333,29.259-84.627c5.39,5.88,6.703,12.642,6.703,14.073V181H101.038z M181.767,108.51
		c-0.255-5.697-1.957-13.51-5.275-21.51h27.454h120.787h228.153C565.219,87,575,97.321,575,109.654V543H219.348h-0.007
		l-1.672,18.364l-0.207,2.377c-0.016,0.173-0.041,0.433-0.057,0.608c-0.15,1.574-0.327,3.226-0.526,4.872
		c-0.131,1.067-0.285,2.182-0.436,3.275c-0.099,0.722-0.194,1.448-0.302,2.179c-0.216,1.455-0.45,2.934-0.701,4.422
		c-0.05,0.298-0.099,0.598-0.15,0.898c-4.106,23.866-12.268,51.166-22.833,63.168c-6.472-3.949-10.457-11.06-10.457-19.047V109.654
		L181.767,108.51z M598.395,646H242.201c0.378-1,0.707-1.401,1.071-2.217c0.288-0.645,0.566-1.171,0.845-1.82
		c0.772-1.796,1.521-3.532,2.23-5.349c0.23-0.588,0.448-1.145,0.671-1.734c0.715-1.889,1.41-3.759,2.062-5.653
		c0.172-0.498,0.331-0.986,0.498-1.484c0.667-1.988,1.313-3.961,1.914-5.937c0.109-0.359,0.208-0.709,0.315-1.067
		c0.628-2.101,1.232-4.186,1.789-6.252c0.044-0.164,0.082-0.485,0.126-0.649c2.484-9.29,4.303-18.838,5.579-25.838h360.689h38.119
		C648.19,636,606.828,645,598.395,646z M293,351v-21.514c-17-1.022-35.914-5.883-45.892-11l8.139-35.306
		c11.514,5.627,27.225,11.256,44.877,11.256c12.794,0,21.927-3.58,21.927-11.767c0-7.931-7.456-12.794-26.646-18.679
		c-27.886-8.954-47.51-22.001-47.51-47.842c0-23.281,14.105-41.702,45.105-47.586V145h27v21.515c18,0.767,30.666,4.349,39.875,8.187
		l-7.694,34.026c-6.907-2.813-18.941-8.698-38.386-8.698c-15.094,0-19.575,5.374-19.575,11c0,6.398,8.76,11.258,30.25,18.934
		c32.237,10.489,43.561,25.072,43.561,48.353c0,23.794-16.031,43.237-48.031,48.866V351H293z M544,208H410v-45h134V208z M544,302
		H410v-45h134V302z M544,387H410v-45h134V387z M544,476H244v-45h300V476z"/>
</g>
</svg>
