<?xml version="1.0" encoding="utf-8"?>
<!-- Generator: Adobe Illustrator 17.0.0, SVG Export Plug-In . SVG Version: 6.00 Build 0)  -->
<!DOCTYPE svg PUBLIC "-//W3C//DTD SVG 1.1//EN" "http://www.w3.org/Graphics/SVG/1.1/DTD/svg11.dtd">
<svg version="1.1" id="Capa_1" xmlns="http://www.w3.org/2000/svg" xmlns:xlink="http://www.w3.org/1999/xlink" x="0px" y="0px"
	 width="800px" height="800px" viewBox="0 0 800 800" enable-background="new 0 0 800 800" xml:space="preserve">
<g>
	<path d="M317.47,229.964c-21.49-7.676-30.25-12.536-30.25-18.934c0-5.627,4.481-11,19.575-11c19.445,0,31.479,5.885,38.386,8.698
		l7.694-34.026c-9.209-3.838-21.875-7.42-39.875-8.187V145h-27v23.562c-31,5.885-45.105,24.305-45.105,47.586
		c0,25.841,19.624,38.888,47.51,47.842c19.19,5.885,26.646,10.747,26.646,18.679c0,8.187-9.133,11.767-21.927,11.767
		c-17.652,0-33.363-5.629-44.876-11.256l-8.139,35.306c9.978,5.118,28.892,9.978,45.892,11V351h27v-23.816
		c32-5.629,48.031-25.072,48.031-48.867C361.031,255.036,349.707,240.454,317.47,229.964z M237,476h87.519
		c4.827-16.032,11.855-31.602,18.902-45H237V476z M403,302h134v-45H403V302z M613,543V109.654C613,72.653,582.886,42,545.885,42
		H317.733H196.946H127.07l-4.026,1.898C40.108,77.345,48.973,199.568,49.39,204.769L51.043,225H130v399.116
		c0,32.648,23.262,60.428,55.422,66.051l2.578,0.465V691h3.357l1.273,0.223l0.443-0.223h400.991l1.206-0.021
		c35.529-3.84,102.73-34.827,102.73-125.02V543H613z M130,181H94.038c1.161-24,6.813-63.333,29.259-84.627
		c5.39,5.88,6.703,12.642,6.703,14.073V181z M212.341,543l-1.672,18.364l-0.207,2.377c-0.016,0.173-0.041,0.434-0.057,0.608
		c-0.15,1.574-0.327,3.226-0.526,4.872c-0.131,1.066-0.285,2.182-0.436,3.275c-0.099,0.722-0.194,1.448-0.302,2.179
		c-0.216,1.455-0.45,2.934-0.701,4.422c-0.05,0.298-0.099,0.598-0.15,0.898c-4.105,23.866-12.268,51.166-22.833,63.168
		c-6.472-3.949-10.458-11.06-10.458-19.047V109.654l-0.233-1.143c-0.255-5.697-1.957-13.51-5.275-21.51h27.454h120.787h228.153
		C558.219,87,568,97.321,568,109.654V543H212.348H212.341z M591.395,646H235.201c0.378-1,0.707-1.401,1.071-2.217
		c0.287-0.645,0.566-1.171,0.845-1.82c0.772-1.796,1.521-3.532,2.23-5.349c0.23-0.588,0.448-1.145,0.671-1.734
		c0.715-1.889,1.41-3.759,2.062-5.653c0.172-0.498,0.331-0.986,0.498-1.484c0.667-1.987,1.313-3.961,1.914-5.937
		c0.109-0.359,0.208-0.709,0.315-1.067c0.628-2.101,1.232-4.186,1.789-6.252c0.044-0.164,0.083-0.485,0.126-0.649
		c2.484-9.29,4.303-18.838,5.579-25.838h360.689h38.119C641.189,636,599.828,645,591.395,646z M403,208h134v-45H403V208z"/>
	<g>
		<circle cx="548.965" cy="544.951" r="212.577"/>
		<circle fill="#009D37" cx="548.965" cy="544.951" r="165.567"/>
		<path fill="#FFFFFF" d="M548.965,655.958l76.924-98.463h-52.309v-98.463c0-6.66-2.44-12.429-7.307-17.309
			c-4.88-4.867-10.65-7.307-17.309-7.307c-6.67,0-12.44,2.44-17.309,7.307c-4.879,4.88-7.307,10.649-7.307,17.309v98.463H472.04
			L548.965,655.958z"/>
	</g>
</g>
</svg>
